<svg width="29" height="28" viewBox="0 0 29 28" fill="none" xmlns="http://www.w3.org/2000/svg">
<path d="M28.5 14C28.5 21.7339 22.2339 28 14.5 28C6.76613 28 0.5 21.7339 0.5 14C0.5 6.26613 6.76613 0 14.5 0C22.2339 0 28.5 6.26613 28.5 14ZM12.0161 7.45161V14H8.01371C7.40968 14 7.10484 14.7339 7.53387 15.1573L14.0202 21.6097C14.2855 21.875 14.7089 21.875 14.9742 21.6097L21.4605 15.1573C21.8895 14.7282 21.5847 14 20.9806 14H16.9839V7.45161C16.9839 7.07903 16.679 6.77419 16.3065 6.77419H12.6935C12.321 6.77419 12.0161 7.07903 12.0161 7.45161Z" fill="#CC1F1F"/>
</svg>
