<svg width="431" height="431" viewBox="0 0 431 431" fill="none" xmlns="http://www.w3.org/2000/svg">
<path d="M359.167 71.8334H107.75C87.9419 71.8334 71.8333 87.942 71.8333 107.75V197.542H107.75V143.667L222.683 229.867C225.793 232.195 229.573 233.454 233.458 233.454C237.343 233.454 241.124 232.195 244.233 229.867L359.167 143.667V305.292H215.5V341.208H359.167C378.975 341.208 395.083 325.1 395.083 305.292V107.75C395.083 87.942 378.975 71.8334 359.167 71.8334ZM233.458 193.052L119.71 107.75H347.206L233.458 193.052Z" fill="white"/>
<path d="M35.9167 215.5H161.625V251.417H35.9167V215.5ZM71.8334 269.375H179.583V305.292H71.8334V269.375ZM125.708 323.25H197.542V359.167H125.708V323.25Z" fill="white"/>
</svg>
