<svg width="211" height="212" viewBox="0 0 211 212" fill="none" xmlns="http://www.w3.org/2000/svg">
<g clip-path="url(#clip0)">
<path d="M79.25 26.875C85.7397 26.875 92.0837 28.8086 97.4797 32.4312C102.876 36.0539 107.081 41.2029 109.565 47.2272C112.048 53.2514 112.698 59.8803 111.432 66.2756C110.166 72.6709 107.041 78.5454 102.452 83.1562C97.863 87.7669 92.0164 90.9069 85.6514 92.179C79.2864 93.4511 72.6889 92.7982 66.6932 90.3029C60.6975 87.8076 55.5729 83.5819 51.9674 78.1602C48.3619 72.7385 46.4375 66.3644 46.4375 59.8438C46.4375 51.0999 49.8945 42.7142 56.0481 36.5313C62.2016 30.3485 70.5476 26.875 79.25 26.875V26.875ZM79.25 13.6875C70.1644 13.6875 61.2829 16.3945 53.7285 21.4662C46.1741 26.5379 40.2862 33.7466 36.8093 42.1805C33.3324 50.6145 32.4227 59.895 34.1952 68.8484C35.9677 77.8018 40.3428 86.0261 46.7673 92.4812C53.1918 98.9362 61.3771 103.332 70.2881 105.113C79.1991 106.894 88.4356 105.98 96.8295 102.487C105.224 98.9931 112.398 93.0771 117.446 85.4868C122.493 77.8964 125.188 68.9726 125.188 59.8438C125.188 47.6024 120.348 35.8623 111.733 27.2064C103.118 18.5504 91.4334 13.6875 79.25 13.6875V13.6875Z" fill="white"/>
<path d="M144.875 198.312H131.75V165.344C131.75 156.6 128.293 148.214 122.139 142.031C115.986 135.848 107.64 132.375 98.9375 132.375H59.5625C50.8601 132.375 42.5141 135.848 36.3606 142.031C30.207 148.214 26.75 156.6 26.75 165.344V198.312H13.625V165.344C13.625 153.102 18.4648 141.362 27.0798 132.706C35.6947 124.05 47.3791 119.188 59.5625 119.188H98.9375C111.121 119.188 122.805 124.05 131.42 132.706C140.035 141.362 144.875 153.102 144.875 165.344V198.312Z" fill="white"/>
<path d="M144.875 26.875H210.5V40.0625H144.875V26.875Z" fill="white"/>
<path d="M144.875 59.8438H210.5V73.0312H144.875V59.8438Z" fill="white"/>
<path d="M144.875 92.8125H190.812V106H144.875V92.8125Z" fill="white"/>
</g>
<defs>
<clipPath id="clip0">
<rect width="210" height="211" fill="white" transform="translate(0.5 0.5)"/>
</clipPath>
</defs>
</svg>
